<?xml version="1.0" encoding="UTF-8" standalone="no"?>
<!-- Created with Inkscape (http://www.inkscape.org/) -->

<svg
   version="1.1"
   id="svg1"
   width="203"
   height="234"
   viewBox="0 0 203 234"
   sodipodi:docname="MERALLIN_LOGO.svg"
   inkscape:version="1.3.2 (091e20e, 2023-11-25, custom)"
   xml:space="preserve"
   xmlns:inkscape="http://www.inkscape.org/namespaces/inkscape"
   xmlns:sodipodi="http://sodipodi.sourceforge.net/DTD/sodipodi-0.dtd"
   xmlns:xlink="http://www.w3.org/1999/xlink"
   xmlns="http://www.w3.org/2000/svg"
   xmlns:svg="http://www.w3.org/2000/svg"><defs
     id="defs1"><linearGradient
       id="swatch20"
       inkscape:swatch="solid"><stop
         style="stop-color:#005064;stop-opacity:1;"
         offset="0"
         id="stop20" /></linearGradient><linearGradient
       id="swatch19"
       inkscape:swatch="solid"><stop
         style="stop-color:#000000;stop-opacity:1;"
         offset="0"
         id="stop19" /></linearGradient><linearGradient
       id="swatch18"
       inkscape:swatch="solid"><stop
         style="stop-color:#000000;stop-opacity:1;"
         offset="0"
         id="stop18" /></linearGradient><linearGradient
       id="swatch17"
       inkscape:swatch="solid"><stop
         style="stop-color:#000000;stop-opacity:1;"
         offset="0"
         id="stop17" /></linearGradient><linearGradient
       id="swatch16"
       inkscape:swatch="solid"><stop
         style="stop-color:#005064;stop-opacity:1;"
         offset="0"
         id="stop16" /></linearGradient><linearGradient
       id="swatch3"
       inkscape:swatch="solid"><stop
         style="stop-color:#064c60;stop-opacity:1;"
         offset="0"
         id="stop3" /></linearGradient><linearGradient
       id="swatch6"
       inkscape:swatch="solid"><stop
         style="stop-color:#000000;stop-opacity:1;"
         offset="0"
         id="stop6" /></linearGradient><linearGradient
       id="swatch5"
       inkscape:swatch="solid"><stop
         style="stop-color:#000000;stop-opacity:1;"
         offset="0"
         id="stop5" /></linearGradient><linearGradient
       id="swatch4"
       inkscape:swatch="solid"><stop
         style="stop-color:#676767;stop-opacity:1;"
         offset="0"
         id="stop4" /></linearGradient><linearGradient
       id="swatch2"><stop
         style="stop-color:#000000;stop-opacity:1;"
         offset="0"
         id="stop2" /></linearGradient><linearGradient
       id="swatch1"
       inkscape:swatch="solid"><stop
         style="stop-color:#000000;stop-opacity:1;"
         offset="0"
         id="stop1" /></linearGradient><linearGradient
       inkscape:collect="always"
       xlink:href="#swatch20"
       id="linearGradient20"
       x1="-726.5"
       y1="87.25"
       x2="-683.5"
       y2="87.25"
       gradientUnits="userSpaceOnUse"
       gradientTransform="matrix(3.956407,0,0,3.956407,2084.267,-257.94651)" /></defs><sodipodi:namedview
     id="namedview1"
     pagecolor="#ffffff"
     bordercolor="#000000"
     borderopacity="0.25"
     inkscape:showpageshadow="2"
     inkscape:pageopacity="0.0"
     inkscape:pagecheckerboard="0"
     inkscape:deskcolor="#d1d1d1"
     showgrid="true"
     inkscape:zoom="1.4142136"
     inkscape:cx="41.365747"
     inkscape:cy="83.792154"
     inkscape:window-width="1600"
     inkscape:window-height="829"
     inkscape:window-x="-8"
     inkscape:window-y="-8"
     inkscape:window-maximized="1"
     inkscape:current-layer="g47513"
     showguides="false"><inkscape:grid
       id="grid47511"
       units="px"
       originx="0"
       originy="0"
       spacingx="1"
       spacingy="1"
       empcolor="#0099e5"
       empopacity="0.30196078"
       color="#0099e5"
       opacity="0.14901961"
       empspacing="5"
       dotted="false"
       gridanglex="30"
       gridanglez="30"
       visible="true" /></sodipodi:namedview><g
     inkscape:groupmode="layer"
     inkscape:label="Image"
     id="g1"><g
       id="g47513"><ellipse
         style="fill:none;fill-opacity:1;stroke:none;stroke-width:8;stroke-dasharray:none;stroke-opacity:1"
         id="path16"
         cx="-878.75"
         cy="50"
         rx="22.25"
         ry="32.5" /><g
         id="g20"
         transform="matrix(1.0144172,0,0,0.99972215,815.65484,32.166379)"><g
           id="g16"
           transform="matrix(1.0138382,0,0,1,9.5784081,-5.3033009)"><g
             id="g14"
             style="fill:#1ce8f5;fill-opacity:1"
             transform="translate(-188.79751,9.899495)"><path
               style="fill:#1ce8f5;fill-opacity:1;stroke:none;stroke-width:8;stroke-dasharray:none;stroke-opacity:1"
               d="m -527.76962,70.125001 -4.48039,-13 7.25,-20.000001 c 2.59217,-6.704843 1.4661,-10.479116 -3.69804,-14.144029 l -8.83439,-5.038136 2.64721,-7.784456 18.69727,9.287058 19.22447,-9.236583 2.60746,7.822369 -7.42462,4.242641 c -6.79457,3.031368 -6.53861,9.46264 -4.94975,15.202796 l 29.43332,84.49926 c 7.63115,21.87859 -10.12523,25.10639 -25.06124,32.7403 l -2.68826,-7.26929 c 13.01906,-6.37992 21.63284,-8.68131 18.82227,-24.23357 l -3.09359,-8.22012 -18.1455,-49.616192 -13.35736,-0.08395 7.40946,-16.834839 -2.57843,-4.958631 z"
               id="path9"
               sodipodi:nodetypes="ccccccccccccccccccccc" /><path
               style="fill:#1ce8f5;fill-opacity:1;stroke:none;stroke-width:8;stroke-dasharray:none;stroke-opacity:1"
               d="m -527.25001,71.750001 h 10.87501 l -5.375,16.25 z"
               id="path10" /><path
               style="fill:#1ce8f5;fill-opacity:1;stroke:none;stroke-width:8;stroke-dasharray:none;stroke-opacity:1"
               d="m -542.66157,89.259669 4.83363,11.826271 -8.32366,24.24874 c -0.55481,12.1332 12.37477,17.5585 19.53382,22.27386 l -3.0052,7.07107 c -20.94931,-8.9204 -33.30982,-12.08167 -23.5113,-37.12311 z"
               id="path11"
               sodipodi:nodetypes="ccccccc" /></g><g
             id="g15"
             style="fill:#005064;fill-opacity:1"><path
               style="fill:#005064;fill-opacity:1;stroke:none;stroke-width:8;stroke-dasharray:none;stroke-opacity:1"
               d="m -693.40658,88.211572 8.22011,21.655148 -11.36104,31.03278 h -16.25 l -27.00001,-70.750004 -19.375,54.875004 c -1.84493,7.07366 4.10136,11.83779 9.69531,14.42969 l -0.0644,7.7941 c -17.84187,-8.61476 -21.46259,-11.3652 -18.19962,-24.03493 l 22.89258,-68.059031 c 2.36375,-8.31142 -6.19567,-11.566493 -11.69891,-15.254834 l 3.875,-7.625 c 20.20907,8.44368 25.22605,15.599427 29,32.500001 l 18.86383,60.560184 z"
               id="path12"
               sodipodi:nodetypes="ccccccccccccccc" /><path
               style="fill:#005064;fill-opacity:1;stroke:none;stroke-width:8;stroke-dasharray:none;stroke-opacity:1"
               d="m -678.29218,91.216775 8.3085,-21.213203 18.93617,53.395928 c 2.16803,10.67926 -3.91988,12.82092 -9.39023,16.07732 v 7.77817 c 10.65414,-4.90084 23.28105,-8.30705 18.208,-24.66035 L -664.5036,56.568543 c -0.79827,-4.961763 -0.68515,-7.842674 1.68566,-10.347718 l 9.64543,-5.82133 -3.67792,-8.185083 -12.83591,6.025573 c -10.78827,4.844211 -14.33383,16.365328 -17.09113,28.493218 z"
               id="path13"
               sodipodi:nodetypes="ccccccccccccc" /></g></g><circle
           style="fill:none;fill-opacity:1;stroke:url(#linearGradient20);stroke-width:6.71178;stroke-dasharray:none"
           id="path19"
           cx="-705"
           cy="87.25"
           r="85.062759" /></g></g></g></svg>
